<mxfile host="app.diagrams.net" modified="2021-06-19T09:14:14.120Z" agent="5.0 (Macintosh; Intel Mac OS X 10_15_7) AppleWebKit/537.36 (KHTML, like Gecko) Chrome/91.0.4472.106 Safari/537.36" etag="D1u6N_vNTTRVpVi_SZN9" version="14.8.0" type="github">
  <diagram id="vGOEXs7-BdWZyO_aczjX" name="IoC">
    <mxGraphModel dx="2439" dy="874" grid="0" gridSize="10" guides="1" tooltips="1" connect="1" arrows="1" fold="1" page="0" pageScale="1" pageWidth="827" pageHeight="1169" background="none" math="0" shadow="0">
      <root>
        <mxCell id="0" />
        <mxCell id="1" parent="0" />
        <mxCell id="g3_7YH7vOPHp6XhamjHk-15" style="edgeStyle=orthogonalEdgeStyle;rounded=0;orthogonalLoop=1;jettySize=auto;html=1;fontFamily=JetBrains Mono;fontSource=https%3A%2F%2Ffonts.googleapis.com%2Fcss%3Ffamily%3DJetBrains%2BMono;fontStyle=1;sketch=1;shadow=0;" edge="1" parent="1" source="g3_7YH7vOPHp6XhamjHk-3" target="g3_7YH7vOPHp6XhamjHk-4">
          <mxGeometry relative="1" as="geometry" />
        </mxCell>
        <mxCell id="g3_7YH7vOPHp6XhamjHk-3" value="&lt;div style=&quot;background-color: rgb(250, 251, 252); color: rgb(38, 38, 38); font-size: 11.3pt;&quot;&gt;&lt;span style=&quot;color: #000000&quot;&gt;prepareRefresh&lt;/span&gt;()&lt;/div&gt;" style="rounded=0;whiteSpace=wrap;html=1;fontFamily=JetBrains Mono;fontSource=https%3A%2F%2Ffonts.googleapis.com%2Fcss%3Ffamily%3DJetBrains%2BMono;fontStyle=1;sketch=1;shadow=0;" vertex="1" parent="1">
          <mxGeometry x="-320" y="120" width="440" height="39" as="geometry" />
        </mxCell>
        <mxCell id="g3_7YH7vOPHp6XhamjHk-16" style="edgeStyle=orthogonalEdgeStyle;rounded=0;orthogonalLoop=1;jettySize=auto;html=1;exitX=0.5;exitY=1;exitDx=0;exitDy=0;fontFamily=JetBrains Mono;fontSource=https%3A%2F%2Ffonts.googleapis.com%2Fcss%3Ffamily%3DJetBrains%2BMono;fontStyle=1;sketch=1;shadow=0;" edge="1" parent="1" source="g3_7YH7vOPHp6XhamjHk-4" target="g3_7YH7vOPHp6XhamjHk-5">
          <mxGeometry relative="1" as="geometry" />
        </mxCell>
        <mxCell id="g3_7YH7vOPHp6XhamjHk-4" value="&lt;div style=&quot;background-color: rgb(250, 251, 252); color: rgb(38, 38, 38); font-size: 11.3pt;&quot;&gt;&lt;div style=&quot;font-size: 11.3pt;&quot;&gt;&lt;span style=&quot;color: #000000&quot;&gt;obtainFreshBeanFactory&lt;/span&gt;()&lt;/div&gt;&lt;/div&gt;" style="rounded=0;whiteSpace=wrap;html=1;fontFamily=JetBrains Mono;fontSource=https%3A%2F%2Ffonts.googleapis.com%2Fcss%3Ffamily%3DJetBrains%2BMono;fontStyle=1;sketch=1;shadow=0;" vertex="1" parent="1">
          <mxGeometry x="-320" y="200" width="440" height="39" as="geometry" />
        </mxCell>
        <mxCell id="g3_7YH7vOPHp6XhamjHk-17" style="edgeStyle=orthogonalEdgeStyle;rounded=0;orthogonalLoop=1;jettySize=auto;html=1;fontFamily=JetBrains Mono;fontSource=https%3A%2F%2Ffonts.googleapis.com%2Fcss%3Ffamily%3DJetBrains%2BMono;fontStyle=1;sketch=1;shadow=0;" edge="1" parent="1" source="g3_7YH7vOPHp6XhamjHk-5" target="g3_7YH7vOPHp6XhamjHk-6">
          <mxGeometry relative="1" as="geometry" />
        </mxCell>
        <mxCell id="g3_7YH7vOPHp6XhamjHk-5" value="&lt;div style=&quot;background-color: rgb(250, 251, 252); color: rgb(38, 38, 38); font-size: 11.3pt;&quot;&gt;&lt;div style=&quot;font-size: 11.3pt;&quot;&gt;&lt;div style=&quot;font-size: 11.3pt;&quot;&gt;&lt;span style=&quot;color: #000000&quot;&gt;prepareBeanFactory&lt;/span&gt;(&lt;span style=&quot;color: #000000&quot;&gt;beanFactory&lt;/span&gt;)&lt;/div&gt;&lt;/div&gt;&lt;/div&gt;" style="rounded=0;whiteSpace=wrap;html=1;fontFamily=JetBrains Mono;fontSource=https%3A%2F%2Ffonts.googleapis.com%2Fcss%3Ffamily%3DJetBrains%2BMono;fontStyle=1;sketch=1;shadow=0;" vertex="1" parent="1">
          <mxGeometry x="-320" y="280" width="440" height="39" as="geometry" />
        </mxCell>
        <mxCell id="g3_7YH7vOPHp6XhamjHk-18" style="edgeStyle=orthogonalEdgeStyle;rounded=0;orthogonalLoop=1;jettySize=auto;html=1;fontFamily=JetBrains Mono;fontSource=https%3A%2F%2Ffonts.googleapis.com%2Fcss%3Ffamily%3DJetBrains%2BMono;fontStyle=1;sketch=1;shadow=0;" edge="1" parent="1" source="g3_7YH7vOPHp6XhamjHk-6" target="g3_7YH7vOPHp6XhamjHk-7">
          <mxGeometry relative="1" as="geometry" />
        </mxCell>
        <mxCell id="g3_7YH7vOPHp6XhamjHk-6" value="&lt;div style=&quot;background-color: rgb(250, 251, 252); color: rgb(38, 38, 38); font-size: 11.3pt;&quot;&gt;&lt;div style=&quot;font-size: 11.3pt;&quot;&gt;&lt;div style=&quot;font-size: 11.3pt;&quot;&gt;&lt;div style=&quot;font-size: 11.3pt;&quot;&gt;&lt;span style=&quot;color: #000000&quot;&gt;postProcessBeanFactory&lt;/span&gt;(&lt;span style=&quot;color: #000000&quot;&gt;beanFactory&lt;/span&gt;)&lt;/div&gt;&lt;/div&gt;&lt;/div&gt;&lt;/div&gt;" style="rounded=0;whiteSpace=wrap;html=1;fontFamily=JetBrains Mono;fontSource=https%3A%2F%2Ffonts.googleapis.com%2Fcss%3Ffamily%3DJetBrains%2BMono;fontStyle=1;sketch=1;shadow=0;" vertex="1" parent="1">
          <mxGeometry x="-320" y="360" width="440" height="39" as="geometry" />
        </mxCell>
        <mxCell id="g3_7YH7vOPHp6XhamjHk-19" style="edgeStyle=orthogonalEdgeStyle;rounded=0;orthogonalLoop=1;jettySize=auto;html=1;exitX=0.5;exitY=1;exitDx=0;exitDy=0;entryX=0.5;entryY=0;entryDx=0;entryDy=0;fontFamily=JetBrains Mono;fontSource=https%3A%2F%2Ffonts.googleapis.com%2Fcss%3Ffamily%3DJetBrains%2BMono;fontStyle=1;sketch=1;shadow=0;" edge="1" parent="1" source="g3_7YH7vOPHp6XhamjHk-7" target="g3_7YH7vOPHp6XhamjHk-8">
          <mxGeometry relative="1" as="geometry" />
        </mxCell>
        <mxCell id="g3_7YH7vOPHp6XhamjHk-7" value="&lt;div style=&quot;background-color: rgb(250, 251, 252); color: rgb(38, 38, 38); font-size: 11.3pt;&quot;&gt;&lt;div style=&quot;font-size: 11.3pt;&quot;&gt;&lt;div style=&quot;font-size: 11.3pt;&quot;&gt;&lt;div style=&quot;font-size: 11.3pt;&quot;&gt;&lt;div style=&quot;font-size: 11.3pt;&quot;&gt;&lt;span style=&quot;color: #000000&quot;&gt;invokeBeanFactoryPostProcessors&lt;/span&gt;(&lt;span style=&quot;color: #000000&quot;&gt;beanFactory&lt;/span&gt;)&lt;/div&gt;&lt;/div&gt;&lt;/div&gt;&lt;/div&gt;&lt;/div&gt;" style="rounded=0;whiteSpace=wrap;html=1;fontFamily=JetBrains Mono;fontSource=https%3A%2F%2Ffonts.googleapis.com%2Fcss%3Ffamily%3DJetBrains%2BMono;fontStyle=1;sketch=1;shadow=0;" vertex="1" parent="1">
          <mxGeometry x="-320" y="440" width="440" height="39" as="geometry" />
        </mxCell>
        <mxCell id="g3_7YH7vOPHp6XhamjHk-31" style="edgeStyle=orthogonalEdgeStyle;rounded=0;orthogonalLoop=1;jettySize=auto;html=1;fontFamily=JetBrains Mono;fontSource=https%3A%2F%2Ffonts.googleapis.com%2Fcss%3Ffamily%3DJetBrains%2BMono;fontSize=15;fontColor=#FF3333;sketch=1;shadow=0;" edge="1" parent="1" source="g3_7YH7vOPHp6XhamjHk-8" target="g3_7YH7vOPHp6XhamjHk-9">
          <mxGeometry relative="1" as="geometry" />
        </mxCell>
        <mxCell id="g3_7YH7vOPHp6XhamjHk-8" value="&lt;div style=&quot;background-color: rgb(250, 251, 252); color: rgb(38, 38, 38); font-size: 11.3pt;&quot;&gt;&lt;div style=&quot;font-size: 11.3pt;&quot;&gt;&lt;div style=&quot;font-size: 11.3pt;&quot;&gt;&lt;div style=&quot;font-size: 11.3pt;&quot;&gt;&lt;div style=&quot;font-size: 11.3pt;&quot;&gt;&lt;div style=&quot;font-size: 11.3pt;&quot;&gt;&lt;span style=&quot;color: #000000&quot;&gt;registerBeanPostProcessors&lt;/span&gt;(&lt;span style=&quot;color: #000000&quot;&gt;beanFactory&lt;/span&gt;)&lt;/div&gt;&lt;/div&gt;&lt;/div&gt;&lt;/div&gt;&lt;/div&gt;&lt;/div&gt;" style="rounded=0;whiteSpace=wrap;html=1;fontFamily=JetBrains Mono;fontSource=https%3A%2F%2Ffonts.googleapis.com%2Fcss%3Ffamily%3DJetBrains%2BMono;fontStyle=1;sketch=1;shadow=0;" vertex="1" parent="1">
          <mxGeometry x="-320" y="520" width="440" height="39" as="geometry" />
        </mxCell>
        <mxCell id="g3_7YH7vOPHp6XhamjHk-21" style="edgeStyle=orthogonalEdgeStyle;rounded=0;orthogonalLoop=1;jettySize=auto;html=1;entryX=0.5;entryY=0;entryDx=0;entryDy=0;fontFamily=JetBrains Mono;fontSource=https%3A%2F%2Ffonts.googleapis.com%2Fcss%3Ffamily%3DJetBrains%2BMono;fontStyle=1;sketch=1;shadow=0;" edge="1" parent="1" source="g3_7YH7vOPHp6XhamjHk-9" target="g3_7YH7vOPHp6XhamjHk-10">
          <mxGeometry relative="1" as="geometry" />
        </mxCell>
        <mxCell id="g3_7YH7vOPHp6XhamjHk-9" value="&lt;div style=&quot;background-color: rgb(250, 251, 252); color: rgb(38, 38, 38); font-size: 11.3pt;&quot;&gt;&lt;div style=&quot;font-size: 11.3pt;&quot;&gt;&lt;div style=&quot;font-size: 11.3pt;&quot;&gt;&lt;div style=&quot;font-size: 11.3pt;&quot;&gt;&lt;div style=&quot;font-size: 11.3pt;&quot;&gt;&lt;div style=&quot;font-size: 11.3pt;&quot;&gt;&lt;div style=&quot;font-size: 11.3pt;&quot;&gt;&lt;span style=&quot;color: #000000&quot;&gt;initMessageSource&lt;/span&gt;()&lt;/div&gt;&lt;/div&gt;&lt;/div&gt;&lt;/div&gt;&lt;/div&gt;&lt;/div&gt;&lt;/div&gt;" style="rounded=0;whiteSpace=wrap;html=1;fontFamily=JetBrains Mono;fontSource=https%3A%2F%2Ffonts.googleapis.com%2Fcss%3Ffamily%3DJetBrains%2BMono;fontStyle=1;sketch=1;shadow=0;" vertex="1" parent="1">
          <mxGeometry x="-320" y="600" width="440" height="39" as="geometry" />
        </mxCell>
        <mxCell id="g3_7YH7vOPHp6XhamjHk-22" style="edgeStyle=orthogonalEdgeStyle;rounded=0;orthogonalLoop=1;jettySize=auto;html=1;entryX=0.5;entryY=0;entryDx=0;entryDy=0;fontFamily=JetBrains Mono;fontSource=https%3A%2F%2Ffonts.googleapis.com%2Fcss%3Ffamily%3DJetBrains%2BMono;fontStyle=1;sketch=1;shadow=0;" edge="1" parent="1" source="g3_7YH7vOPHp6XhamjHk-10" target="g3_7YH7vOPHp6XhamjHk-11">
          <mxGeometry relative="1" as="geometry" />
        </mxCell>
        <mxCell id="g3_7YH7vOPHp6XhamjHk-10" value="&lt;div style=&quot;background-color: rgb(250, 251, 252); color: rgb(38, 38, 38); font-size: 11.3pt;&quot;&gt;&lt;div style=&quot;font-size: 11.3pt;&quot;&gt;&lt;div style=&quot;font-size: 11.3pt;&quot;&gt;&lt;div style=&quot;font-size: 11.3pt;&quot;&gt;&lt;div style=&quot;font-size: 11.3pt;&quot;&gt;&lt;div style=&quot;font-size: 11.3pt;&quot;&gt;&lt;div style=&quot;font-size: 11.3pt;&quot;&gt;&lt;div style=&quot;font-size: 11.3pt;&quot;&gt;&lt;span style=&quot;color: #000000&quot;&gt;initApplicationEventMulticaster&lt;/span&gt;()&lt;/div&gt;&lt;/div&gt;&lt;/div&gt;&lt;/div&gt;&lt;/div&gt;&lt;/div&gt;&lt;/div&gt;&lt;/div&gt;" style="rounded=0;whiteSpace=wrap;html=1;fontFamily=JetBrains Mono;fontSource=https%3A%2F%2Ffonts.googleapis.com%2Fcss%3Ffamily%3DJetBrains%2BMono;fontStyle=1;sketch=1;shadow=0;" vertex="1" parent="1">
          <mxGeometry x="-320" y="680" width="440" height="39" as="geometry" />
        </mxCell>
        <mxCell id="g3_7YH7vOPHp6XhamjHk-23" style="edgeStyle=orthogonalEdgeStyle;rounded=0;orthogonalLoop=1;jettySize=auto;html=1;fontFamily=JetBrains Mono;fontSource=https%3A%2F%2Ffonts.googleapis.com%2Fcss%3Ffamily%3DJetBrains%2BMono;fontStyle=1;sketch=1;shadow=0;" edge="1" parent="1" source="g3_7YH7vOPHp6XhamjHk-11" target="g3_7YH7vOPHp6XhamjHk-12">
          <mxGeometry relative="1" as="geometry" />
        </mxCell>
        <mxCell id="g3_7YH7vOPHp6XhamjHk-11" value="&lt;div style=&quot;background-color: rgb(250, 251, 252); color: rgb(38, 38, 38); font-size: 11.3pt;&quot;&gt;&lt;div style=&quot;font-size: 11.3pt;&quot;&gt;&lt;div style=&quot;font-size: 11.3pt;&quot;&gt;&lt;div style=&quot;font-size: 11.3pt;&quot;&gt;&lt;div style=&quot;font-size: 11.3pt;&quot;&gt;&lt;div style=&quot;font-size: 11.3pt;&quot;&gt;&lt;div style=&quot;font-size: 11.3pt;&quot;&gt;&lt;div style=&quot;font-size: 11.3pt;&quot;&gt;&lt;div style=&quot;font-size: 11.3pt;&quot;&gt;&lt;span style=&quot;color: #000000&quot;&gt;onRefresh&lt;/span&gt;()&lt;/div&gt;&lt;/div&gt;&lt;/div&gt;&lt;/div&gt;&lt;/div&gt;&lt;/div&gt;&lt;/div&gt;&lt;/div&gt;&lt;/div&gt;" style="rounded=0;whiteSpace=wrap;html=1;fontFamily=JetBrains Mono;fontSource=https%3A%2F%2Ffonts.googleapis.com%2Fcss%3Ffamily%3DJetBrains%2BMono;fontStyle=1;sketch=1;shadow=0;" vertex="1" parent="1">
          <mxGeometry x="-320" y="760" width="440" height="39" as="geometry" />
        </mxCell>
        <mxCell id="g3_7YH7vOPHp6XhamjHk-24" style="edgeStyle=orthogonalEdgeStyle;rounded=0;orthogonalLoop=1;jettySize=auto;html=1;fontFamily=JetBrains Mono;fontSource=https%3A%2F%2Ffonts.googleapis.com%2Fcss%3Ffamily%3DJetBrains%2BMono;fontStyle=1;sketch=1;shadow=0;" edge="1" parent="1" source="g3_7YH7vOPHp6XhamjHk-12" target="g3_7YH7vOPHp6XhamjHk-13">
          <mxGeometry relative="1" as="geometry" />
        </mxCell>
        <mxCell id="g3_7YH7vOPHp6XhamjHk-12" value="&lt;div style=&quot;background-color: rgb(250, 251, 252); color: rgb(38, 38, 38); font-size: 11.3pt;&quot;&gt;&lt;div style=&quot;font-size: 11.3pt;&quot;&gt;&lt;div style=&quot;font-size: 11.3pt;&quot;&gt;&lt;div style=&quot;font-size: 11.3pt;&quot;&gt;&lt;div style=&quot;font-size: 11.3pt;&quot;&gt;&lt;div style=&quot;font-size: 11.3pt;&quot;&gt;&lt;div style=&quot;font-size: 11.3pt;&quot;&gt;&lt;div style=&quot;font-size: 11.3pt;&quot;&gt;&lt;div style=&quot;font-size: 11.3pt;&quot;&gt;&lt;div style=&quot;font-size: 11.3pt;&quot;&gt;&lt;span style=&quot;color: #000000&quot;&gt;registerListeners&lt;/span&gt;()&lt;/div&gt;&lt;/div&gt;&lt;/div&gt;&lt;/div&gt;&lt;/div&gt;&lt;/div&gt;&lt;/div&gt;&lt;/div&gt;&lt;/div&gt;&lt;/div&gt;" style="rounded=0;whiteSpace=wrap;html=1;fontFamily=JetBrains Mono;fontSource=https%3A%2F%2Ffonts.googleapis.com%2Fcss%3Ffamily%3DJetBrains%2BMono;fontStyle=1;sketch=1;shadow=0;" vertex="1" parent="1">
          <mxGeometry x="-320" y="840" width="440" height="39" as="geometry" />
        </mxCell>
        <mxCell id="g3_7YH7vOPHp6XhamjHk-25" style="edgeStyle=orthogonalEdgeStyle;rounded=0;orthogonalLoop=1;jettySize=auto;html=1;entryX=0.5;entryY=0;entryDx=0;entryDy=0;fontFamily=JetBrains Mono;fontSource=https%3A%2F%2Ffonts.googleapis.com%2Fcss%3Ffamily%3DJetBrains%2BMono;fontStyle=1;sketch=1;shadow=0;" edge="1" parent="1" source="g3_7YH7vOPHp6XhamjHk-13" target="g3_7YH7vOPHp6XhamjHk-14">
          <mxGeometry relative="1" as="geometry" />
        </mxCell>
        <mxCell id="g3_7YH7vOPHp6XhamjHk-13" value="&lt;div style=&quot;background-color: rgb(250, 251, 252); color: rgb(38, 38, 38); font-size: 11.3pt;&quot;&gt;&lt;div style=&quot;font-size: 11.3pt;&quot;&gt;&lt;div style=&quot;font-size: 11.3pt;&quot;&gt;&lt;div style=&quot;font-size: 11.3pt;&quot;&gt;&lt;div style=&quot;font-size: 11.3pt;&quot;&gt;&lt;div style=&quot;font-size: 11.3pt;&quot;&gt;&lt;div style=&quot;font-size: 11.3pt;&quot;&gt;&lt;div style=&quot;font-size: 11.3pt;&quot;&gt;&lt;div style=&quot;font-size: 11.3pt;&quot;&gt;&lt;div style=&quot;font-size: 11.3pt;&quot;&gt;&lt;div style=&quot;font-size: 11.3pt;&quot;&gt;&lt;span style=&quot;color: #000000&quot;&gt;finishBeanFactoryInitialization&lt;/span&gt;(&lt;span style=&quot;color: #000000&quot;&gt;beanFactory&lt;/span&gt;)&lt;/div&gt;&lt;/div&gt;&lt;/div&gt;&lt;/div&gt;&lt;/div&gt;&lt;/div&gt;&lt;/div&gt;&lt;/div&gt;&lt;/div&gt;&lt;/div&gt;&lt;/div&gt;" style="rounded=0;whiteSpace=wrap;html=1;fontFamily=JetBrains Mono;fontSource=https%3A%2F%2Ffonts.googleapis.com%2Fcss%3Ffamily%3DJetBrains%2BMono;fontStyle=1;strokeColor=#C73500;fontColor=#000000;fillColor=#FFB570;sketch=1;shadow=0;" vertex="1" parent="1">
          <mxGeometry x="-320" y="920" width="440" height="39" as="geometry" />
        </mxCell>
        <mxCell id="g3_7YH7vOPHp6XhamjHk-14" value="&lt;div style=&quot;background-color: rgb(250, 251, 252); color: rgb(38, 38, 38); font-size: 11.3pt;&quot;&gt;&lt;div style=&quot;font-size: 11.3pt;&quot;&gt;&lt;div style=&quot;font-size: 11.3pt;&quot;&gt;&lt;div style=&quot;font-size: 11.3pt;&quot;&gt;&lt;div style=&quot;font-size: 11.3pt;&quot;&gt;&lt;div style=&quot;font-size: 11.3pt;&quot;&gt;&lt;div style=&quot;font-size: 11.3pt;&quot;&gt;&lt;div style=&quot;font-size: 11.3pt;&quot;&gt;&lt;div style=&quot;font-size: 11.3pt;&quot;&gt;&lt;div style=&quot;font-size: 11.3pt;&quot;&gt;&lt;div style=&quot;font-size: 11.3pt;&quot;&gt;&lt;div style=&quot;font-size: 11.3pt;&quot;&gt;&lt;span style=&quot;color: #000000&quot;&gt;finishRefresh&lt;/span&gt;()&lt;/div&gt;&lt;/div&gt;&lt;/div&gt;&lt;/div&gt;&lt;/div&gt;&lt;/div&gt;&lt;/div&gt;&lt;/div&gt;&lt;/div&gt;&lt;/div&gt;&lt;/div&gt;&lt;/div&gt;" style="rounded=0;whiteSpace=wrap;html=1;fontFamily=JetBrains Mono;fontSource=https%3A%2F%2Ffonts.googleapis.com%2Fcss%3Ffamily%3DJetBrains%2BMono;fontStyle=1;sketch=1;shadow=0;" vertex="1" parent="1">
          <mxGeometry x="-320" y="1000" width="440" height="39" as="geometry" />
        </mxCell>
        <mxCell id="g3_7YH7vOPHp6XhamjHk-30" value="org.springframework.context.support.AbstractApplicationContext#refresh" style="swimlane;fontFamily=JetBrains Mono;fontSource=https%3A%2F%2Ffonts.googleapis.com%2Fcss%3Ffamily%3DJetBrains%2BMono;startSize=40;fontStyle=1;fontSize=15;fillColor=#ffe6cc;strokeColor=#d79b00;fontColor=#FF3333;" vertex="1" parent="1">
          <mxGeometry x="-440" y="40" width="680" height="1030" as="geometry" />
        </mxCell>
      </root>
    </mxGraphModel>
  </diagram>
</mxfile>
